<svg xmlns="http://www.w3.org/2000/svg" version="1.1" xmlns:xlink="http://www.w3.org/1999/xlink" xmlns:svgjs="http://svgjs.dev/svgjs" width="1000" height="1000" viewBox="0 0 1000 1000"><g transform="matrix(1,0,0,1,-0.14221556886212738,-0.14221556886229791)"><svg viewBox="0 0 334 334" data-background-color="#ffffff" preserveAspectRatio="xMidYMid meet" height="1000" width="1000" xmlns="http://www.w3.org/2000/svg" xmlns:xlink="http://www.w3.org/1999/xlink"><g id="tight-bounds" transform="matrix(1,0,0,1,0.04749999999998522,0.04750000000001364)"><svg viewBox="0 0 333.90454557049503 333.90454557049503" height="333.90454557049503" width="333.90454557049503"><g><svg></svg></g><g><svg viewBox="0 0 333.90454557049503 333.90454557049503" height="333.90454557049503" width="333.90454557049503"><g><path d="M0 166.952c0-92.205 74.747-166.952 166.952-166.952 92.205 0 166.952 74.747 166.953 166.952 0 92.205-74.747 166.952-166.953 166.953-92.205 0-166.952-74.747-166.952-166.953zM166.952 331.082c90.647 0 164.13-73.484 164.13-164.13 0-90.647-73.484-164.13-164.13-164.13-90.647 0-164.13 73.484-164.13 164.13 0 90.647 73.484 164.13 164.13 164.13z" data-fill-palette-color="tertiary" fill="#ffffff" stroke="transparent"></path><ellipse rx="160.27418187383762" ry="160.27418187383762" cx="166.95227278524752" cy="166.95227278524752" fill="#ffffff" stroke="transparent" stroke-width="0" fill-opacity="1" data-fill-palette-color="tertiary"></ellipse></g><g transform="matrix(1,0,0,1,80.33383200080175,71.17305217166896)"><svg viewBox="0 0 173.23688156889153 191.55844122715712" height="191.55844122715712" width="173.23688156889153"><g><svg viewBox="0 0 173.23688156889153 191.55844122715712" height="191.55844122715712" width="173.23688156889153"><g><svg viewBox="0 0 213.1584412271571 235.70211127153615" height="191.55844122715712" width="173.23688156889153"><g transform="matrix(1,0,0,1,0,175.4970581600776)"><svg viewBox="0 0 213.1584412271571 60.205053111458575" height="60.205053111458575" width="213.1584412271571"><g id="textblocktransform"><svg viewBox="0 0 213.1584412271571 60.205053111458575" height="60.205053111458575" width="213.1584412271571" id="textblock"><g><svg viewBox="0 0 213.1584412271571 38.505783561251704" height="38.505783561251704" width="213.1584412271571"><g transform="matrix(1,0,0,1,0,0)"><svg width="213.1584412271571" viewBox="0.6000000238418579 -37.099998474121094 267.0799865722656 48.25" height="38.505783561251704" data-palette-color="#ffffff"><path d="M28.4-10.15Q28.4-6.9 26.7-4.4 25-1.9 21.83-0.53 18.65 0.85 14.3 0.85L14.3 0.85Q5.7 0.85 0.6-4.15L0.6-4.15 4.75-8.75Q8.7-5.25 14.1-5.25L14.1-5.25Q16.7-5.25 18.28-6.38 19.85-7.5 19.85-9.5L19.85-9.5Q19.85-11.4 18.53-12.48 17.2-13.55 13.6-14.65L13.6-14.65Q7.5-16.5 4.95-19 2.4-21.5 2.4-25.45L2.4-25.45Q2.4-28.55 4.13-30.85 5.85-33.15 8.83-34.35 11.8-35.55 15.45-35.55L15.45-35.55Q23.1-35.55 27.85-31.05L27.85-31.05 24-26.6Q22.25-28.05 20.23-28.78 18.2-29.5 16.05-29.5L16.05-29.5Q13.65-29.5 12.28-28.63 10.9-27.75 10.9-26.1L10.9-26.1Q10.9-25 11.53-24.25 12.15-23.5 13.6-22.85 15.05-22.2 17.95-21.3L17.95-21.3Q23.25-19.7 25.83-17.18 28.4-14.65 28.4-10.15L28.4-10.15ZM57.4-1.55Q53.65 0.85 48.7 0.85L48.7 0.85Q43.6 0.85 41.02-1.75 38.45-4.35 38.45-9.05L38.45-9.05 38.45-21.1 32.9-21.1 32.9-26.55 38.45-26.55 38.45-32.3 46.35-33.25 46.35-26.55 54.9-26.55 54.1-21.1 46.35-21.1 46.35-9.05Q46.35-7.1 47.25-6.25 48.15-5.4 50.15-5.4L50.15-5.4Q52.65-5.4 54.8-6.6L54.8-6.6 57.4-1.55ZM88.59-26.55L79.75 0Q77.95 5.35 74.4 8.08 70.84 10.8 64.9 11.15L64.9 11.15 64 5.55Q67.8 5.05 69.62 3.85 71.45 2.65 72.55 0L72.55 0 69.8 0 61.4-26.55 69.75-26.55 74.9-5.05 80.5-26.55 88.59-26.55ZM107.34-37.1L107.34-8.35Q107.34-5.4 110.74-5.4L110.74-5.4Q112.59-5.4 114.54-6.2L114.54-6.2 116.39-0.9Q113.19 0.85 108.74 0.85L108.74 0.85Q104.09 0.85 101.77-1.83 99.44-4.5 99.44-9.35L99.44-9.35 99.44-31.7 91.64-31.7 91.64-37.1 107.34-37.1ZM130.34-10.95Q131.09-4.9 136.74-4.9L136.74-4.9Q140.14-4.9 143.54-7.1L143.54-7.1 146.69-2.8Q144.74-1.1 142.04-0.13 139.34 0.85 136.09 0.85L136.09 0.85Q131.64 0.85 128.54-0.93 125.44-2.7 123.87-5.88 122.29-9.05 122.29-13.25L122.29-13.25Q122.29-17.25 123.82-20.48 125.34-23.7 128.27-25.58 131.19-27.45 135.24-27.45L135.24-27.45Q139.04-27.45 141.84-25.83 144.64-24.2 146.17-21.13 147.69-18.05 147.69-13.8L147.69-13.8Q147.69-12.15 147.54-10.95L147.54-10.95 130.34-10.95ZM135.24-22.15Q133.09-22.15 131.79-20.58 130.49-19 130.24-15.75L130.24-15.75 139.99-15.75Q139.89-22.15 135.24-22.15L135.24-22.15ZM162.94-6L176.19-6 175.44 0 153.59 0 153.59-5.6 166.79-20.6 154.69-20.6 154.69-26.55 175.94-26.55 175.94-21 162.94-6ZM194.99-27.45Q201.04-27.45 204.46-23.63 207.89-19.8 207.89-13.35L207.89-13.35Q207.89-6.65 204.49-2.9 201.09 0.85 194.99 0.85L194.99 0.85Q188.89 0.85 185.49-2.88 182.09-6.6 182.09-13.3L182.09-13.3Q182.09-17.55 183.61-20.73 185.14-23.9 188.06-25.68 190.99-27.45 194.99-27.45L194.99-27.45ZM194.99-21.6Q192.54-21.6 191.39-19.63 190.24-17.65 190.24-13.3L190.24-13.3Q190.24-8.9 191.39-6.93 192.54-4.95 194.99-4.95L194.99-4.95Q197.44-4.95 198.59-6.95 199.74-8.95 199.74-13.35L199.74-13.35Q199.74-17.65 198.59-19.63 197.44-21.6 194.99-21.6L194.99-21.6ZM213.48 0L213.48-26.55 220.38-26.55 220.93-23.5Q222.73-25.5 224.71-26.48 226.68-27.45 229.18-27.45L229.18-27.45Q232.63-27.45 234.56-25.35 236.48-23.25 236.48-19.5L236.48-19.5 236.48 0 228.58 0 228.58-17.2Q228.58-19.7 228.03-20.65 227.48-21.6 226.03-21.6L226.03-21.6Q224.83-21.6 223.71-20.83 222.58-20.05 221.38-18.55L221.38-18.55 221.38 0 213.48 0ZM250.33-10.95Q251.08-4.9 256.73-4.9L256.73-4.9Q260.13-4.9 263.53-7.1L263.53-7.1 266.68-2.8Q264.73-1.1 262.03-0.13 259.33 0.85 256.08 0.85L256.08 0.85Q251.63 0.85 248.53-0.93 245.43-2.7 243.86-5.88 242.28-9.05 242.28-13.25L242.28-13.25Q242.28-17.25 243.81-20.48 245.33-23.7 248.26-25.58 251.18-27.45 255.23-27.45L255.23-27.45Q259.03-27.45 261.83-25.83 264.63-24.2 266.16-21.13 267.68-18.05 267.68-13.8L267.68-13.8Q267.68-12.15 267.53-10.95L267.53-10.95 250.33-10.95ZM255.23-22.15Q253.08-22.15 251.78-20.58 250.48-19 250.23-15.75L250.23-15.75 259.98-15.75Q259.88-22.15 255.23-22.15L255.23-22.15Z" opacity="1" transform="matrix(1,0,0,1,0,0)" fill="#000000" class="wordmark-text-0" data-fill-palette-color="quaternary" id="text-0"></path></svg></g></svg></g><g transform="matrix(1,0,0,1,0,47.59607492125776)"><svg viewBox="0 0 213.1584412271571 12.608978190200816" height="12.608978190200816" width="213.1584412271571"><g transform="matrix(1,0,0,1,0,0)"><svg width="213.1584412271571" viewBox="7.079999923706055 -36.88999938964844 631.8800048828125 37.380001068115234" height="12.608978190200816" data-palette-color="#ffffff"><path d="M27.17-31.03L11.23-31.03 11.23-19.7 25.71-19.7 25.71-16.04 11.23-16.04 11.23 0 7.08 0 7.08-34.69 27.17-34.69 27.17-31.03ZM42.85-24.58L42.85-24.58Q45.53-24.58 47.4-23.96 49.27-23.34 50.28-22.14 51.29-20.95 51.73-19.48 52.17-18.02 52.17-16.11L52.17-16.11 52.17 0 49.34 0 48.41-2.2Q45.46 0.49 41.63 0.49L41.63 0.49Q38.21 0.49 35.84-1.57 33.47-3.64 33.47-6.4L33.47-6.4Q33.47-7.86 34.01-9.03 34.55-10.21 35.56-10.99 36.57-11.77 37.87-12.32 39.16-12.87 40.88-13.16 42.6-13.45 44.34-13.57 46.07-13.7 48.14-13.7L48.14-13.7 48.14-15.6Q48.14-16.43 48.08-17.04 48.02-17.65 47.68-18.51 47.34-19.36 46.75-19.91 46.17-20.46 45-20.86 43.82-21.26 42.21-21.26L42.21-21.26Q39.72-21.26 35.77-20.17L35.77-20.17 35.01-23.1Q39.01-24.58 42.85-24.58ZM48.14-5.13L48.14-10.67 46.66-10.67Q45.26-10.67 44.24-10.62 43.21-10.57 41.83-10.34 40.45-10.11 39.58-9.69 38.7-9.28 38.07-8.48 37.45-7.69 37.45-6.59L37.45-6.59Q37.45-5.05 39-3.86 40.55-2.66 42.7-2.66L42.7-2.66Q45.85-2.66 48.14-5.13L48.14-5.13ZM70.97-24.58L70.97-24.58Q71.48-24.58 71.94-24.57 72.39-24.56 72.81-24.51 73.24-24.46 73.55-24.44 73.85-24.41 74.26-24.34 74.66-24.27 74.84-24.23 75.02-24.19 75.45-24.08 75.88-23.97 75.98-23.95 76.07-23.93 76.55-23.78 77.03-23.63 77.1-23.61L77.1-23.61 76.07-20.56Q72.8-21.46 70.31-21.46L70.31-21.46Q68.87-21.46 67.76-21.17 66.65-20.87 66.05-20.46 65.45-20.04 65.08-19.49 64.7-18.95 64.59-18.53 64.48-18.12 64.48-17.72L64.48-17.72Q64.48-16.72 65.52-15.94 66.55-15.16 68.1-14.67 69.65-14.18 71.46-13.51 73.27-12.84 74.82-12.1 76.37-11.35 77.4-10.01 78.44-8.67 78.44-6.91L78.44-6.91Q78.44-5.91 78.19-4.97 77.93-4.03 77.21-3 76.49-1.98 75.35-1.23 74.22-0.49 72.31 0 70.41 0.49 67.94 0.49L67.94 0.49Q64.21 0.49 59.74-1.34L59.74-1.34 60.86-4.37Q63.38-3.44 64.98-3.05 66.58-2.66 68.12-2.66L68.12-2.66Q74.07-2.66 74.07-6.45L74.07-6.45Q74.07-7.28 73.49-7.91 72.9-8.54 71.92-8.95 70.95-9.35 69.71-9.78 68.48-10.21 67.2-10.57 65.92-10.94 64.69-11.54 63.45-12.13 62.48-12.85 61.5-13.57 60.91-14.72 60.33-15.87 60.33-17.31L60.33-17.31Q60.33-18.19 60.61-19.1 60.89-20.02 61.66-21.03 62.43-22.05 63.57-22.81 64.72-23.58 66.64-24.08 68.55-24.58 70.97-24.58ZM95.78-24.58L95.78-24.58Q96.29-24.58 96.74-24.57 97.19-24.56 97.62-24.51 98.05-24.46 98.35-24.44 98.66-24.41 99.06-24.34 99.46-24.27 99.65-24.23 99.83-24.19 100.26-24.08 100.68-23.97 100.78-23.95 100.88-23.93 101.35-23.78 101.83-23.63 101.9-23.61L101.9-23.61 100.88-20.56Q97.61-21.46 95.12-21.46L95.12-21.46Q93.68-21.46 92.57-21.17 91.46-20.87 90.86-20.46 90.26-20.04 89.88-19.49 89.5-18.95 89.39-18.53 89.28-18.12 89.28-17.72L89.28-17.72Q89.28-16.72 90.32-15.94 91.36-15.16 92.91-14.67 94.46-14.18 96.26-13.51 98.07-12.84 99.62-12.1 101.17-11.35 102.21-10.01 103.25-8.67 103.25-6.91L103.25-6.91Q103.25-5.91 102.99-4.97 102.73-4.03 102.01-3 101.29-1.98 100.16-1.23 99.02-0.49 97.12 0 95.21 0.49 92.75 0.49L92.75 0.49Q89.01 0.49 84.55-1.34L84.55-1.34 85.67-4.37Q88.18-3.44 89.78-3.05 91.38-2.66 92.92-2.66L92.92-2.66Q98.88-2.66 98.88-6.45L98.88-6.45Q98.88-7.28 98.29-7.91 97.71-8.54 96.73-8.95 95.75-9.35 94.52-9.78 93.29-10.21 92-10.57 90.72-10.94 89.49-11.54 88.26-12.13 87.28-12.85 86.3-13.57 85.72-14.72 85.13-15.87 85.13-17.31L85.13-17.31Q85.13-18.19 85.41-19.1 85.69-20.02 86.46-21.03 87.23-22.05 88.38-22.81 89.53-23.58 91.44-24.08 93.36-24.58 95.78-24.58ZM121.26-21L121.26-21Q118.41-21 114.82-19.12L114.82-19.12 114.82 0 110.82 0 110.82-36.89 114.82-36.89 114.82-22.29Q119.09-24.56 122.83-24.56L122.83-24.56Q124.44-24.56 125.72-24.15 127-23.73 127.83-23.11 128.66-22.49 129.26-21.5 129.86-20.51 130.16-19.64 130.47-18.77 130.63-17.58 130.79-16.38 130.82-15.63 130.86-14.87 130.86-13.84L130.86-13.84 130.86 0 126.76 0 126.76-14.58Q126.76-21 121.26-21ZM139.28-30.08L139.28-34.69 144.02-34.69 144.02-30.08 139.28-30.08ZM139.65 0L139.65-24.12 143.65-24.12 143.65 0 139.65 0ZM162.96-24.58L162.96-24.58Q167.97-24.58 171.2-21.39 174.44-18.19 174.44-12.55L174.44-12.55Q174.44-6.57 171.13-3.04 167.82 0.49 162.57 0.49L162.57 0.49Q157.57 0.49 154.39-2.82 151.22-6.13 151.22-11.79L151.22-11.79Q151.22-17.63 154.46-21.11 157.69-24.58 162.96-24.58ZM162.62-21.17L162.62-21.17Q159.62-21.17 157.37-18.85 155.13-16.53 155.13-12.48L155.13-12.48Q155.13-8.45 157.32-5.69 159.52-2.93 163.01-2.93L163.01-2.93Q166.24-2.93 168.38-5.37 170.53-7.81 170.53-11.74L170.53-11.74Q170.53-13.99 169.84-15.82 169.14-17.65 168.01-18.8 166.87-19.95 165.48-20.56 164.09-21.17 162.62-21.17ZM182.01 0L182.01-24.12 184.81-24.12 185.69-22.07Q190.36-24.61 194.19-24.61L194.19-24.61Q196.17-24.61 197.63-23.99 199.1-23.36 199.9-22.42 200.71-21.48 201.18-20.06 201.66-18.63 201.79-17.33 201.93-16.04 201.93-14.38L201.93-14.38 201.93 0 197.92 0 197.92-14.65Q197.92-21 192.46-21L192.46-21Q189.62-21 186.01-19.12L186.01-19.12 186.01 0 182.01 0ZM232.37-24.58L232.37-24.58Q235.06-24.58 236.93-23.96 238.79-23.34 239.81-22.14 240.82-20.95 241.26-19.48 241.7-18.02 241.7-16.11L241.7-16.11 241.7 0 238.87 0 237.94-2.2Q234.99 0.49 231.15 0.49L231.15 0.49Q227.73 0.49 225.37-1.57 223-3.64 223-6.4L223-6.4Q223-7.86 223.54-9.03 224.07-10.21 225.09-10.99 226.1-11.77 227.39-12.32 228.69-12.87 230.41-13.16 232.13-13.45 233.86-13.57 235.6-13.7 237.67-13.7L237.67-13.7 237.67-15.6Q237.67-16.43 237.61-17.04 237.55-17.65 237.21-18.51 236.87-19.36 236.28-19.91 235.69-20.46 234.52-20.86 233.35-21.26 231.74-21.26L231.74-21.26Q229.25-21.26 225.29-20.17L225.29-20.17 224.54-23.1Q228.54-24.58 232.37-24.58ZM237.67-5.13L237.67-10.67 236.18-10.67Q234.79-10.67 233.76-10.62 232.74-10.57 231.36-10.34 229.98-10.11 229.1-9.69 228.22-9.28 227.6-8.48 226.98-7.69 226.98-6.59L226.98-6.59Q226.98-5.05 228.53-3.86 230.08-2.66 232.23-2.66L232.23-2.66Q235.38-2.66 237.67-5.13L237.67-5.13ZM250.49 0L250.49-24.12 253.3-24.12 254.17-22.07Q258.84-24.61 262.67-24.61L262.67-24.61Q264.65-24.61 266.11-23.99 267.58-23.36 268.38-22.42 269.19-21.48 269.67-20.06 270.14-18.63 270.28-17.33 270.41-16.04 270.41-14.38L270.41-14.38 270.41 0 266.41 0 266.41-14.65Q266.41-21 260.94-21L260.94-21Q258.11-21 254.49-19.12L254.49-19.12 254.49 0 250.49 0ZM277.98-11.65L277.98-11.65Q277.98-14.77 278.86-17.26 279.74-19.75 281.27-21.34 282.81-22.92 284.88-23.77 286.94-24.61 289.33-24.61L289.33-24.61Q292.21-24.61 295.17-23.32L295.17-23.32 295.17-36.89 299.17-36.89 299.17 0 296.39 0 295.73-1.51Q292.33 0.49 288.65 0.49L288.65 0.49Q287.13 0.49 285.69 0.12 284.25-0.24 282.84-1.15 281.42-2.05 280.36-3.41 279.3-4.76 278.64-6.88 277.98-9.01 277.98-11.65ZM289.97-2.81L289.97-2.81Q292.63-2.81 295.17-4.17L295.17-4.17 295.17-20.29Q292.55-21.46 289.92-21.46L289.92-21.46Q288.79-21.46 287.74-21.22 286.69-20.97 285.6-20.34 284.5-19.7 283.7-18.7 282.91-17.7 282.4-16.05 281.88-14.4 281.88-12.28L281.88-12.28Q281.88-10.08 282.42-8.36 282.96-6.64 283.79-5.62 284.62-4.59 285.74-3.93 286.87-3.27 287.89-3.04 288.92-2.81 289.97-2.81ZM331.88-24.58L331.88-24.58Q332.4-24.58 332.85-24.57 333.3-24.56 333.73-24.51 334.16-24.46 334.46-24.44 334.77-24.41 335.17-24.34 335.57-24.27 335.75-24.23 335.94-24.19 336.36-24.08 336.79-23.97 336.89-23.95 336.99-23.93 337.46-23.78 337.94-23.63 338.01-23.61L338.01-23.61 336.99-20.56Q333.72-21.46 331.23-21.46L331.23-21.46Q329.79-21.46 328.67-21.17 327.56-20.87 326.97-20.46 326.37-20.04 325.99-19.49 325.61-18.95 325.5-18.53 325.39-18.12 325.39-17.72L325.39-17.72Q325.39-16.72 326.43-15.94 327.47-15.16 329.02-14.67 330.57-14.18 332.37-13.51 334.18-12.84 335.73-12.1 337.28-11.35 338.32-10.01 339.36-8.67 339.36-6.91L339.36-6.91Q339.36-5.91 339.1-4.97 338.84-4.03 338.12-3 337.4-1.98 336.27-1.23 335.13-0.49 333.23 0 331.32 0.49 328.86 0.49L328.86 0.49Q325.12 0.49 320.65-1.34L320.65-1.34 321.78-4.37Q324.29-3.44 325.89-3.05 327.49-2.66 329.03-2.66L329.03-2.66Q334.99-2.66 334.99-6.45L334.99-6.45Q334.99-7.28 334.4-7.91 333.81-8.54 332.84-8.95 331.86-9.35 330.63-9.78 329.39-10.21 328.11-10.57 326.83-10.94 325.6-11.54 324.37-12.13 323.39-12.85 322.41-13.57 321.83-14.72 321.24-15.87 321.24-17.31L321.24-17.31Q321.24-18.19 321.52-19.1 321.8-20.02 322.57-21.03 323.34-22.05 324.49-22.81 325.63-23.58 327.55-24.08 329.47-24.58 331.88-24.58ZM357.2-24.58L357.2-24.58Q362.21-24.58 365.44-21.39 368.68-18.19 368.68-12.55L368.68-12.55Q368.68-6.57 365.37-3.04 362.06 0.49 356.81 0.49L356.81 0.49Q351.81 0.49 348.63-2.82 345.46-6.13 345.46-11.79L345.46-11.79Q345.46-17.63 348.69-21.11 351.93-24.58 357.2-24.58ZM356.86-21.17L356.86-21.17Q353.86-21.17 351.61-18.85 349.37-16.53 349.37-12.48L349.37-12.48Q349.37-8.45 351.56-5.69 353.76-2.93 357.25-2.93L357.25-2.93Q360.47-2.93 362.62-5.37 364.77-7.81 364.77-11.74L364.77-11.74Q364.77-13.99 364.07-15.82 363.38-17.65 362.24-18.8 361.11-19.95 359.72-20.56 358.33-21.17 356.86-21.17ZM399.56-20.9L399.56-20.9Q397.46-20.9 393.92-19.04L393.92-19.04 393.92 0 389.92 0 389.92-24.12 392.72-24.12 393.58-22.12Q397.95-24.58 401.15-24.58L401.15-24.58Q404.83-24.58 406.93-21.9L406.93-21.9Q411.72-24.56 415.5-24.56L415.5-24.56Q417.33-24.56 418.73-24.06 420.12-23.56 420.98-22.69 421.85-21.83 422.4-20.52 422.95-19.21 423.16-17.76 423.36-16.31 423.36-14.48L423.36-14.48 423.36 0 419.36 0 419.36-14.75Q419.36-15.19 419.34-15.56 419.31-15.94 419.21-16.61 419.12-17.29 418.92-17.81 418.73-18.33 418.35-18.95 417.97-19.56 417.43-19.96 416.89-20.36 416.06-20.63 415.23-20.9 414.21-20.9L414.21-20.9Q411.96-20.9 408.28-18.99L408.28-18.99Q408.62-17.55 408.62-14.31L408.62-14.31 408.62 0 404.61 0 404.61-14.84Q404.61-15.48 404.57-16.05 404.52-16.63 404.22-17.58 403.93-18.53 403.44-19.2 402.95-19.87 401.94-20.39 400.93-20.9 399.56-20.9ZM448.19-4.98L448.19-24.12 452.2-24.12 452.2 0 449.39 0 448.54-2.03Q443.92 0.49 440.01 0.49L440.01 0.49Q438.04 0.49 436.57-0.13 435.11-0.76 434.3-1.68 433.5-2.61 433.01-4.04 432.52-5.47 432.39-6.76 432.25-8.06 432.25-9.72L432.25-9.72 432.25-24.12 436.25-24.12 436.25-9.42Q436.25-3.1 441.75-3.1L441.75-3.1Q444.58-3.1 448.19-4.98L448.19-4.98ZM459.77-11.5L459.77-11.5Q459.77-14.36 460.45-16.64 461.13-18.92 462.27-20.37 463.4-21.83 464.94-22.79 466.48-23.75 468.09-24.16 469.7-24.56 471.46-24.56L471.46-24.56Q474.93-24.56 478.22-23.12L478.22-23.12 477.25-20.19Q474.54-21.12 471.95-21.12L471.95-21.12Q470.68-21.12 469.56-20.89 468.43-20.65 467.32-20.04 466.21-19.43 465.42-18.47 464.62-17.5 464.14-15.94 463.65-14.38 463.65-12.35L463.65-12.35Q463.65-10.13 464.16-8.44 464.67-6.74 465.5-5.69 466.33-4.64 467.49-3.98 468.65-3.32 469.84-3.06 471.02-2.81 472.39-2.81L472.39-2.81Q474.68-2.81 476.98-3.61L476.98-3.61 477.95-0.85Q474.49 0.49 471 0.49L471 0.49Q469.38 0.49 467.91 0.17 466.43-0.15 464.9-0.99 463.38-1.83 462.27-3.13 461.16-4.42 460.46-6.58 459.77-8.74 459.77-11.5ZM496.12-21L496.12-21Q493.26-21 489.67-19.12L489.67-19.12 489.67 0 485.67 0 485.67-36.89 489.67-36.89 489.67-22.29Q493.95-24.56 497.68-24.56L497.68-24.56Q499.29-24.56 500.57-24.15 501.86-23.73 502.69-23.11 503.52-22.49 504.11-21.5 504.71-20.51 505.02-19.64 505.32-18.77 505.48-17.58 505.64-16.38 505.68-15.63 505.71-14.87 505.71-13.84L505.71-13.84 505.71 0 501.61 0 501.61-14.58Q501.61-21 496.12-21ZM537.82-20.9L537.82-20.9Q535.72-20.9 532.18-19.04L532.18-19.04 532.18 0 528.17 0 528.17-24.12 530.98-24.12 531.84-22.12Q536.21-24.58 539.4-24.58L539.4-24.58Q543.09-24.58 545.19-21.9L545.19-21.9Q549.98-24.56 553.76-24.56L553.76-24.56Q555.59-24.56 556.98-24.06 558.37-23.56 559.24-22.69 560.11-21.83 560.66-20.52 561.21-19.21 561.41-17.76 561.62-16.31 561.62-14.48L561.62-14.48 561.62 0 557.62 0 557.62-14.75Q557.62-15.19 557.59-15.56 557.57-15.94 557.47-16.61 557.37-17.29 557.18-17.81 556.98-18.33 556.6-18.95 556.23-19.56 555.69-19.96 555.15-20.36 554.32-20.63 553.49-20.9 552.47-20.9L552.47-20.9Q550.22-20.9 546.53-18.99L546.53-18.99Q546.88-17.55 546.88-14.31L546.88-14.31 546.88 0 542.87 0 542.87-14.84Q542.87-15.48 542.82-16.05 542.77-16.63 542.48-17.58 542.19-18.53 541.7-19.2 541.21-19.87 540.2-20.39 539.18-20.9 537.82-20.9ZM581.03-24.58L581.03-24.58Q586.04-24.58 589.27-21.39 592.5-18.19 592.5-12.55L592.5-12.55Q592.5-6.57 589.2-3.04 585.89 0.49 580.64 0.49L580.64 0.49Q575.63 0.49 572.46-2.82 569.29-6.13 569.29-11.79L569.29-11.79Q569.29-17.63 572.52-21.11 575.76-24.58 581.03-24.58ZM580.69-21.17L580.69-21.17Q577.69-21.17 575.44-18.85 573.19-16.53 573.19-12.48L573.19-12.48Q573.19-8.45 575.39-5.69 577.59-2.93 581.08-2.93L581.08-2.93Q584.3-2.93 586.45-5.37 588.6-7.81 588.6-11.74L588.6-11.74Q588.6-13.99 587.9-15.82 587.21-17.65 586.07-18.8 584.94-19.95 583.54-20.56 582.15-21.17 580.69-21.17ZM602.88-24.12L603.64-22.31Q606.69-24.58 610.38-24.58L610.38-24.58Q612.92-24.58 614.99-23.63L614.99-23.63 613.77-20.43Q611.87-21.17 609.81-21.17L609.81-21.17Q606.76-21.17 604.08-19.48L604.08-19.48 604.08 0 600.07 0 600.07-24.12 602.88-24.12ZM630-24.58L630-24.58Q631.76-24.58 633.17-24.16 634.57-23.73 635.5-23.07 636.43-22.41 637.1-21.35 637.77-20.29 638.12-19.3 638.48-18.31 638.67-16.92 638.87-15.53 638.92-14.5 638.96-13.48 638.96-12.08L638.96-12.08 638.96-10.18 622.39-10.18Q622.39-8.86 622.99-7.56 623.58-6.25 624.67-5.16 625.76-4.08 627.53-3.39 629.3-2.71 631.45-2.71L631.45-2.71Q633.98-2.71 636.94-3.59L636.94-3.59 637.65-0.85Q633.72 0.49 629.93 0.49L629.93 0.49Q627.27 0.49 625.21-0.22 623.14-0.93 621.89-2.06 620.63-3.2 619.82-4.79 619.02-6.37 618.71-7.95 618.41-9.52 618.41-11.28L618.41-11.28Q618.41-13.99 619.07-16.24 619.73-18.48 620.85-20.01 621.97-21.53 623.47-22.58 624.98-23.63 626.62-24.11 628.27-24.58 630-24.58ZM629.15-21.12L629.15-21.12Q627-21.12 625.45-19.93 623.9-18.75 623.19-16.99 622.49-15.23 622.49-13.21L622.49-13.21 635.08-13.21Q635.08-21.12 629.15-21.12Z" opacity="1" transform="matrix(1,0,0,1,0,0)" fill="#000000" class="slogan-text-1" data-fill-palette-color="quaternary" id="text-1"></path></svg></g></svg></g></svg></g></svg></g><g transform="matrix(1,0,0,1,23.378444407268617,0)"><svg viewBox="0 0 166.40155241261988 166.40676680007152" height="166.40676680007152" width="166.40155241261988"><g><svg xmlns="http://www.w3.org/2000/svg" xmlns:xlink="http://www.w3.org/1999/xlink" version="1.1" x="0" y="0" viewBox="18.350997924804688 18.347999572753906 63.30200958251953 63.303993225097656" enable-background="new 0 0 100 100" xml:space="preserve" height="166.40676680007152" width="166.40155241261988" class="icon-icon-0" data-fill-palette-color="quaternary" id="icon-0"><g fill="#ffffff" data-fill-palette-color="quaternary"><path fill="#000000" d="M80.951 48.597c-4.329-3.261-9.009-4.911-13.907-4.911-0.107 0-0.213 0-0.32 0.002-0.104-0.002-0.212-0.002-0.318-0.002-0.431 0-0.857 0.029-1.283 0.054 0.399-0.354 0.792-0.717 1.168-1.103 3.598-3.496 5.814-8.047 6.587-13.531 0.078-0.548-0.105-1.098-0.496-1.487-0.391-0.39-0.941-0.573-1.488-0.497-5.482 0.773-10.035 2.99-13.529 6.589-0.384 0.373-0.744 0.764-1.097 1.161 0.032-0.53 0.054-1.062 0.046-1.597 0.073-5.016-1.579-9.801-4.91-14.227-0.331-0.44-0.851-0.7-1.401-0.7-0.552 0-1.072 0.26-1.404 0.7-3.33 4.425-4.981 9.211-4.909 14.227-0.008 0.535 0.014 1.066 0.045 1.597-0.352-0.396-0.713-0.788-1.097-1.161-3.493-3.599-8.045-5.816-13.529-6.589-0.549-0.076-1.098 0.107-1.487 0.497-0.39 0.391-0.574 0.941-0.498 1.487 0.774 5.484 2.99 10.036 6.588 13.531 0.375 0.386 0.769 0.748 1.168 1.103-0.427-0.024-0.854-0.054-1.284-0.054-0.107 0-0.213 0-0.319 0.002-0.106-0.002-0.212-0.002-0.321-0.002-4.898 0-9.577 1.65-13.905 4.911-0.44 0.332-0.7 0.851-0.7 1.402 0 0.553 0.259 1.071 0.7 1.403 4.329 3.26 9.008 4.91 13.908 4.91 0.106 0 0.212 0 0.318-0.002 0.106 0.002 0.223-0.006 0.318 0.002 0.432 0 0.859-0.029 1.288-0.053-0.399 0.354-0.793 0.717-1.168 1.104-3.599 3.494-5.816 8.047-6.59 13.529-0.077 0.547 0.107 1.096 0.498 1.486 0.331 0.332 0.779 0.516 1.242 0.516 0.081 0 0.163-0.006 0.246-0.018 5.484-0.773 10.036-2.99 13.529-6.588 0.384-0.373 0.745-0.766 1.097-1.162-0.031 0.531-0.053 1.062-0.045 1.598-0.073 5.016 1.579 9.801 4.909 14.227 0.332 0.441 0.853 0.701 1.404 0.701 0.551 0 1.07-0.26 1.402-0.701 3.33-4.426 4.982-9.211 4.909-14.227 0.008-0.535-0.014-1.066-0.046-1.596 0.353 0.396 0.712 0.789 1.097 1.16 3.494 3.598 8.046 5.814 13.529 6.588 0.082 0.012 0.165 0.018 0.246 0.018 0.461 0 0.91-0.184 1.242-0.516 0.391-0.391 0.574-0.939 0.496-1.486-0.772-5.484-2.99-10.037-6.588-13.529-0.375-0.387-0.77-0.75-1.169-1.104 0.428 0.023 0.855 0.053 1.286 0.053 0.107 0 0.213 0 0.317-0.002 0.106 0.002 0.213 0.002 0.318 0.002 0.001 0 0 0 0.001 0 4.899 0 9.579-1.65 13.908-4.91 0.44-0.332 0.7-0.85 0.7-1.403C81.651 49.448 81.392 48.929 80.951 48.597zM48.784 49.509l1.217-1.215 1.214 1.215-1.214 1.215L48.784 49.509zM59.828 36.215c0.013-0.014 0.026-0.027 0.039-0.04 2.41-2.489 5.449-4.198 9.058-5.099-0.901 3.607-2.61 6.646-5.099 9.057-0.014 0.012-0.027 0.027-0.04 0.04-2.411 2.489-5.449 4.198-9.057 5.099C55.63 41.665 57.339 38.624 59.828 36.215zM47.2 33.247c-0.054-3.464 0.886-6.822 2.801-10.009 1.914 3.187 2.854 6.545 2.799 10.008 0 0.02 0 0.039 0 0.058 0.056 3.463-0.885 6.82-2.799 10.008-1.915-3.188-2.854-6.544-2.801-10.009C47.2 33.285 47.2 33.266 47.2 33.247zM31.077 31.076c3.608 0.9 6.647 2.609 9.056 5.099 0.014 0.013 0.027 0.026 0.04 0.04 2.489 2.409 4.199 5.448 5.098 9.057-3.606-0.901-6.646-2.61-9.057-5.101-0.013-0.013-0.027-0.026-0.039-0.039C33.686 37.722 31.977 34.684 31.077 31.076zM33.303 52.799c-0.009 0-0.018 0-0.027 0s-0.019 0-0.029 0c-0.096 0.002-0.192 0.004-0.289 0.004-3.361 0-6.62-0.941-9.72-2.803 3.099-1.861 6.358-2.801 9.717-2.801 0.098 0 0.195 0 0.292 0.002 0.019 0.001 0.038 0.001 0.056 0 0.098-0.002 0.195-0.002 0.292-0.002 3.359 0 6.619 0.939 9.717 2.801-3.099 1.862-6.359 2.803-9.719 2.803C33.496 52.803 33.399 52.801 33.303 52.799zM40.174 63.785c-0.014 0.014-0.027 0.025-0.041 0.039-2.409 2.488-5.448 4.197-9.056 5.1 0.899-3.607 2.608-6.646 5.098-9.059 0.013-0.012 0.026-0.025 0.041-0.039 2.409-2.488 5.448-4.197 9.056-5.098C44.371 58.336 42.662 61.375 40.174 63.785zM52.8 66.752c0.056 3.465-0.885 6.822-2.799 10.01-1.915-3.188-2.854-6.545-2.801-10.01 0-0.02 0-0.037 0-0.055-0.054-3.465 0.886-6.822 2.801-10.01 1.914 3.188 2.854 6.545 2.799 10.01C52.8 66.715 52.8 66.732 52.8 66.752zM68.924 68.924c-3.607-0.902-6.646-2.611-9.058-5.098-0.013-0.014-0.025-0.027-0.038-0.041-2.489-2.41-4.198-5.449-5.099-9.057 3.607 0.9 6.646 2.609 9.056 5.098 0.014 0.014 0.026 0.027 0.04 0.039C66.314 62.277 68.022 65.314 68.924 68.924zM67.042 52.803c-0.096 0-0.192-0.002-0.289-0.004-0.01 0-0.02 0-0.029 0-0.009 0-0.018 0-0.028 0-0.096 0.002-0.192 0.004-0.289 0.004-3.361 0-6.62-0.941-9.718-2.803 3.098-1.861 6.356-2.801 9.717-2.801 0.097 0 0.194 0 0.29 0.002 0.02 0.001 0.039 0.001 0.058 0 0.097-0.002 0.194-0.002 0.291-0.002 3.36 0 6.62 0.939 9.718 2.801C73.664 51.861 70.404 52.803 67.042 52.803z" data-fill-palette-color="quaternary"></path><circle fill="#000000" cx="66.725" cy="50" r="2.3" data-fill-palette-color="quaternary"></circle><circle fill="#000000" cx="33.276" cy="50" r="2.3" data-fill-palette-color="quaternary"></circle><circle fill="#000000" cx="50" cy="66.725" r="2.3" data-fill-palette-color="quaternary"></circle><circle fill="#000000" cx="50" cy="33.275" r="2.3" data-fill-palette-color="quaternary"></circle><circle fill="#000000" cx="61.827" cy="61.825" r="2.3" data-fill-palette-color="quaternary"></circle><circle fill="#000000" cx="38.174" cy="38.174" r="2.3" data-fill-palette-color="quaternary"></circle><circle fill="#000000" cx="38.174" cy="61.825" r="2.3" data-fill-palette-color="quaternary"></circle><circle fill="#000000" cx="61.827" cy="38.174" r="2.3" data-fill-palette-color="quaternary"></circle></g></svg></g></svg></g><g></g></svg></g></svg></g></svg></g></svg></g><defs></defs></svg><rect width="333.90454557049503" height="333.90454557049503" fill="none" stroke="none" visibility="hidden"></rect></g></svg></g></svg>